<svg version="1.2" xmlns="http://www.w3.org/2000/svg" viewBox="0 0 1318 787" width="1318" height="787">
	<title>taillccccss-svg</title>
	<style>
		.s0 { fill: #38bdf8 } 
	</style>
	<path id="Layer" fill-rule="evenodd" class="s0" d="m961.5 140.4c39.6 40 75.5 76.1 125.6 88.5q131.8 32.7 230.6-98.1-65.9 261.6-329.4 261.6c-163.3 0-238.1-75.3-302.7-140.4-39.6-39.9-75.5-76-125.6-88.5q-131.7-32.7-230.6 98.1c44-174.4 153.8-261.6 329.5-261.6 163.3 0 238 75.3 302.6 140.4zm-329.4 392.5c39.6 39.9 75.5 76 125.6 88.5q131.7 32.7 230.6-98.1-65.9 261.6-329.4 261.6c-163.4 0-238.1-75.3-302.7-140.4-39.6-40-75.5-76.1-125.6-88.5q-131.8-32.7-230.6 98.1 65.9-261.7 329.4-261.7c163.3 0 238.1 75.4 302.7 140.5z"/>
</svg>